<svg width="24" height="25" viewBox="0 0 24 25" fill="none" xmlns="http://www.w3.org/2000/svg">
<path opacity="0.4" d="M12 22.5C17.5228 22.5 22 18.0228 22 12.5C22 6.97715 17.5228 2.5 12 2.5C6.47715 2.5 2 6.97715 2 12.5C2 18.0228 6.47715 22.5 12 22.5Z" fill="#8D96AC"/>
<path d="M16.03 11.9699L13.03 8.96994C12.74 8.67994 12.26 8.67994 11.97 8.96994C11.68 9.25994 11.68 9.73994 11.97 10.0299L13.69 11.7499H8.5C8.09 11.7499 7.75 12.0899 7.75 12.4999C7.75 12.9099 8.09 13.2499 8.5 13.2499H13.69L11.97 14.9699C11.68 15.2599 11.68 15.7399 11.97 16.0299C12.12 16.1799 12.31 16.2499 12.5 16.2499C12.69 16.2499 12.88 16.1799 13.03 16.0299L16.03 13.0299C16.32 12.7399 16.32 12.2599 16.03 11.9699Z" fill="#8D96AC"/>
</svg>
