<svg width="186" height="26" viewBox="0 0 186 26" fill="none" xmlns="http://www.w3.org/2000/svg">
<g clip-path="url(#clip0_191_220)">
<path d="M19.2708 10.9167L23.8541 22.375H21.6094L20.3583 19.25H16.0979L14.8489 22.375H12.6052L17.1875 10.9167H19.2708ZM10.4166 2.58334V4.66668H16.6666V6.75001H14.6166C13.8131 9.16884 12.5307 11.4011 10.8458 13.3136C11.5972 13.984 12.4121 14.5795 13.2791 15.0917L12.4969 17.0479C11.3776 16.4131 10.3308 15.6583 9.37498 14.7969C7.51413 16.481 5.31044 17.7419 2.9156 18.4927L2.35727 16.4833C4.40918 15.8291 6.3 14.7493 7.90623 13.3146C6.71737 11.9687 5.72713 10.4597 4.9656 8.83334H7.29894C7.87951 9.90507 8.57567 10.91 9.37498 11.8302C10.6772 10.3293 11.7034 8.6097 12.4062 6.75105L2.08331 6.75001V4.66668H8.33331V2.58334H10.4166ZM18.2291 13.9219L16.9302 17.1667H19.526L18.2291 13.9219Z" fill="#0D0D0D"/>
</g>
<path d="M36.088 17.5V6.14H39.256L42.296 14.844H42.312L45.336 6.14H48.504V17.5H46.312V9.164H46.28L43.32 17.5H41.272L38.312 9.164H38.28V17.5H36.088ZM52.2498 17.692C50.6978 17.692 49.6098 16.796 49.6098 15.356C49.6098 13.9 50.7458 12.892 52.8738 12.668L54.1698 12.524C54.5538 12.492 54.8418 12.236 54.8418 11.788C54.8418 11.1 54.2338 10.668 53.4178 10.668C52.4258 10.668 51.7858 11.42 51.7538 12.284L49.8338 11.836C49.8978 10.284 51.3218 9.068 53.4338 9.068C55.5458 9.068 56.8738 10.284 56.8738 12.108V17.5H55.0178L54.7938 16.364H54.7778C54.2658 17.212 53.3698 17.692 52.2498 17.692ZM53.0178 16.108C54.0418 16.108 54.7938 15.34 54.7938 14.204V13.788L53.3538 13.948C52.2178 14.076 51.7058 14.54 51.7058 15.148C51.7058 15.756 52.2498 16.108 53.0178 16.108ZM61.4861 17.756C59.7901 17.756 58.7981 16.748 58.7981 15.148V10.94H57.3901V9.34H58.7981V7.132L60.8781 6.668V9.34H63.6461V10.94H60.8781V14.78C60.8781 15.564 61.2461 16.028 61.8701 16.028C62.4621 16.028 62.9101 15.676 63.1021 14.812L64.1101 15.916C63.7901 17.084 62.7981 17.756 61.4861 17.756ZM68.8634 9.1C70.2074 9.1 71.0394 10.108 71.1034 11.852L69.3434 12.348C69.2954 11.308 68.8954 10.732 68.2554 10.732C67.4234 10.732 66.9274 11.612 66.9274 13.116V17.5H64.8314V9.34H66.5274L66.7834 10.7H66.7994C67.1674 9.692 67.9354 9.1 68.8634 9.1ZM73.1905 8.076C72.4225 8.076 71.8945 7.564 71.8945 6.796C71.8945 6.044 72.4225 5.532 73.1905 5.532C73.9745 5.532 74.5025 6.044 74.5025 6.796C74.5025 7.564 73.9745 8.076 73.1905 8.076ZM72.1345 17.5V9.34H74.2305V17.5H72.1345ZM79.3639 17.772C76.9479 17.772 75.3959 16.076 75.4119 13.42C75.4119 10.764 76.8999 9.068 79.1559 9.068C80.9799 9.068 82.3079 10.188 82.6599 11.98L80.7239 12.444C80.5159 11.388 79.9079 10.796 79.1719 10.796C78.1639 10.796 77.4919 11.788 77.4919 13.42C77.4919 15.052 78.2599 16.044 79.3799 16.044C80.3399 16.044 81.0439 15.308 81.2199 14.076L83.1559 14.428C82.8679 16.46 81.3959 17.772 79.3639 17.772ZM87.3999 17.5V6.14H90.3439L94.4079 14.652H94.4399V6.14H96.6479V17.5H93.7199L89.6399 9.004H89.6079V17.5H87.3999ZM101.941 17.772C99.4934 17.772 97.9094 16.06 97.9094 13.404C97.9094 10.764 99.4934 9.068 101.941 9.068C104.389 9.068 105.973 10.764 105.973 13.404C105.973 16.06 104.389 17.772 101.941 17.772ZM101.941 15.98C103.125 15.98 103.893 14.988 103.893 13.404C103.893 11.836 103.125 10.86 101.941 10.86C100.741 10.86 99.9894 11.836 99.9894 13.404C99.9894 14.988 100.741 15.98 101.941 15.98ZM115.183 17.836C112.015 17.836 109.967 15.468 109.967 11.82C109.967 8.156 112.111 5.788 115.423 5.788C117.647 5.788 119.455 7.148 120.079 9.244L117.903 9.756C117.503 8.556 116.543 7.788 115.391 7.788C113.519 7.788 112.303 9.356 112.303 11.788C112.303 14.252 113.647 15.852 115.695 15.852C117.535 15.852 118.799 14.62 118.847 12.732H114.431V11.1H121.103V17.5H119.343L119.151 15.644H119.135C118.335 17.004 116.863 17.836 115.183 17.836ZM126.366 17.772C123.79 17.772 122.11 16.028 122.11 13.34C122.11 10.748 123.63 9.068 125.998 9.068C128.286 9.068 129.742 10.7 129.742 13.26C129.742 13.564 129.726 13.868 129.678 14.028H124.19C124.302 15.34 125.134 16.156 126.366 16.156C127.278 16.156 127.998 15.692 128.302 14.892L129.918 15.532C129.47 16.924 128.062 17.772 126.366 17.772ZM124.19 12.668H127.63C127.566 11.404 126.974 10.684 125.998 10.684C124.942 10.684 124.334 11.436 124.19 12.668ZM135.526 9.116C137.046 9.116 137.974 10.092 137.974 11.756V17.5H135.894V12.156C135.894 11.324 135.43 10.828 134.678 10.828C133.67 10.828 133.014 11.532 133.014 12.652V17.5H130.918V9.34H132.678L132.95 10.572H132.966C133.478 9.644 134.39 9.116 135.526 9.116ZM143.25 17.772C140.674 17.772 138.994 16.028 138.994 13.34C138.994 10.748 140.514 9.068 142.882 9.068C145.17 9.068 146.626 10.7 146.626 13.26C146.626 13.564 146.61 13.868 146.562 14.028H141.074C141.186 15.34 142.018 16.156 143.25 16.156C144.162 16.156 144.882 15.692 145.186 14.892L146.802 15.532C146.354 16.924 144.946 17.772 143.25 17.772ZM141.074 12.668H144.514C144.45 11.404 143.858 10.684 142.882 10.684C141.826 10.684 141.218 11.436 141.074 12.668ZM151.833 9.1C153.177 9.1 154.009 10.108 154.073 11.852L152.313 12.348C152.265 11.308 151.865 10.732 151.225 10.732C150.393 10.732 149.897 11.612 149.897 13.116V17.5H147.801V9.34H149.497L149.753 10.7H149.769C150.137 9.692 150.905 9.1 151.833 9.1ZM157.249 17.692C155.697 17.692 154.609 16.796 154.609 15.356C154.609 13.9 155.745 12.892 157.873 12.668L159.169 12.524C159.553 12.492 159.841 12.236 159.841 11.788C159.841 11.1 159.233 10.668 158.417 10.668C157.425 10.668 156.785 11.42 156.753 12.284L154.833 11.836C154.897 10.284 156.321 9.068 158.433 9.068C160.545 9.068 161.873 10.284 161.873 12.108V17.5H160.017L159.793 16.364H159.777C159.265 17.212 158.369 17.692 157.249 17.692ZM158.017 16.108C159.041 16.108 159.793 15.34 159.793 14.204V13.788L158.353 13.948C157.217 14.076 156.705 14.54 156.705 15.148C156.705 15.756 157.249 16.108 158.017 16.108ZM166.485 17.756C164.789 17.756 163.797 16.748 163.797 15.148V10.94H162.389V9.34H163.797V7.132L165.877 6.668V9.34H168.645V10.94H165.877V14.78C165.877 15.564 166.245 16.028 166.869 16.028C167.461 16.028 167.909 15.676 168.101 14.812L169.109 15.916C168.789 17.084 167.797 17.756 166.485 17.756ZM173.496 17.772C171.048 17.772 169.464 16.06 169.464 13.404C169.464 10.764 171.048 9.068 173.496 9.068C175.944 9.068 177.528 10.764 177.528 13.404C177.528 16.06 175.944 17.772 173.496 17.772ZM173.496 15.98C174.68 15.98 175.448 14.988 175.448 13.404C175.448 11.836 174.68 10.86 173.496 10.86C172.296 10.86 171.544 11.836 171.544 13.404C171.544 14.988 172.296 15.98 173.496 15.98ZM182.617 9.1C183.961 9.1 184.793 10.108 184.857 11.852L183.097 12.348C183.049 11.308 182.649 10.732 182.009 10.732C181.177 10.732 180.681 11.612 180.681 13.116V17.5H178.585V9.34H180.281L180.537 10.7H180.553C180.921 9.692 181.689 9.1 182.617 9.1Z" fill="#0D0D0D"/>
<defs>
<clipPath id="clip0_191_220">
<rect width="25" height="25" fill="white" transform="translate(0 0.5)"/>
</clipPath>
</defs>
</svg>
